<?xml version="1.0" standalone="no"?> <!DOCTYPE svg PUBLIC "-//W3C//DTD SVG 1.0//EN" "http://www.w3.org/TR/2001/REC-SVG-20010904/DTD/svg10.dtd" > <svg xmlns="http://www.w3.org/2000/svg" width="100%" height="100%">
<defs >
<font horiz-adv-x="428" ><font-face
    font-family="JejuMyeongjo"
    units-per-em="1000"
    panose-1="2 0 3 0 0 0 0 0 0 0"
    ascent="800"
    descent="-200"
    alphabetic="0" />
<missing-glyph horiz-adv-x="920" d="M860 -150H60V750H860V-150ZM460 271L125 -114H795L460 271ZM100 -83L434 301L100 685V-83ZM459 330L793 714H126L459 330ZM820 686L486 300L820 -84V686Z" />
<glyph unicode=" " glyph-name="null" horiz-adv-x="280" />
<glyph unicode="!" glyph-name="null" horiz-adv-x="920" d="M202 569Q202 536 197 484T185 372T174 254T168 149H143Q143 203 138 262T127 377T115 484T110 569Q110 618 121 644T156 670Q180 670 191 641T202 569ZM205 -7Q205 -28 191 -43T157 -58Q136 -58 122
-43T108 -7Q108 14 122 28T157 43Q177 43 191 29T205 -7Z" />
<glyph unicode="&quot;" glyph-name="null" horiz-adv-x="413" d="M323 611Q321 596 318 561T309 488T298 422T285 393Q280 393 276 406T268 440T261 486T256 536T252 580T249 611V612Q246 621 246 630Q246 654 256 667T285 681Q324 681 324 634Q324 629 324 624T323
614V611ZM169 611Q167 596 164 561T156 488T145 422T132 393Q125 393 119 421T109 487T101 560T95 611V612Q92 621 92 630Q92 654 102 667T131 681Q170 681 170 634Q170 629 170 624T169 614V611Z" />
<glyph unicode="#" glyph-name="null" horiz-adv-x="646" d="M606 437Q603 424 600 412T594 387H480Q470 344 461 303T442 219H556Q553 206 550 194T544 170H429Q416 116 404 65T378 -38H324Q336 13 348 64T372 170H207Q194 116 182 65T156 -38H101Q114 13 126
64T152 170H39Q41 182 44 194T49 219H165Q175 261 185 302T205 387H88Q90 399 93 411T98 437H217Q230 489 242 540T268 646H327Q314 592 301 541T275 437H436Q449 489 462 540T488 646H543Q530 592 518 541T492 437H606ZM384 219Q394 261 404 302T424 387H261Q250
344 240 303T219 219H384Z" />
<glyph unicode="$" glyph-name="null" horiz-adv-x="554" d="M513 143Q513 102 498 68T455 10T388 -27T300 -42V-133H262V-39Q239 -34 216 -28T169 -14Q140 -17 109 -36Q92 9 76 51T42 139Q48 143 53 146T65 153Q114 79 160 45T262 0V283Q159 320 113 366T66 479Q66
522 81 553T123 606T185 637T262 649V736H300V646Q317 644 335 639T375 623L427 643Q444 600 460 557T494 471Q489 468 484 466T473 460Q435 526 389 563T300 610V340Q364 317 405 296T471 252T504 203T513 143ZM300 -5Q372 -3 413 31T454 125Q454 149 448 167T425
201T378 232T300 265V-5ZM262 614Q196 612 159 580T122 489Q122 412 262 358V614Z" />
<glyph unicode="%" glyph-name="null" horiz-adv-x="920" d="M809 231Q809 181 792 134T744 50T674 -9T588 -32Q543 -32 514 0T484 83Q484 131 503 178T553 262T624 322T707 345Q758 342 783 315T809 231ZM778 227Q778 264 761 285T708 307Q676 307 647 287T595
235T559 164T545 87Q545 4 611 4Q640 4 670 24T724 76T763 148T778 227ZM435 522Q435 471 417 423T368 338T297 279T214 257Q169 257 140 289T110 373Q110 423 129 470T179 554T250 613T332 635L333 634Q360 633 377 623T407 602T436 580T475 569Q517 569 557 586T629
651H674Q574 474 478 301T282 -49H233Q318 104 403 254T573 559Q553 546 528 539T474 531Q465 531 455 532T434 536Q435 532 435 529T435 522ZM403 517Q403 534 396 545T379 564T356 580T332 597Q300 597 271 577T220 526T185 455T171 378Q171 295 236 295Q267
295 297 315T350 368T388 439T403 517Z" />
<glyph unicode="&amp;" glyph-name="null" horiz-adv-x="761" d="M286 391Q323 407 351 424T398 459Q435 495 435 539Q435 576 411 603Q385 633 349 633Q299 633 273 601Q253 575 253 539Q253 478 286 391ZM433 30Q393 72 358 125T290 244Q279 263 269 283T248
327Q189 298 154 257Q122 219 122 177Q122 93 171 44Q182 34 199 25Q222 9 250 2T311 -6Q313 -6 315 -6T321 -7Q336 -7 351 -3Q393 2 433 30ZM713 54Q717 49 720 46T727 38Q697 -6 660 -28Q622 -51 583 -51Q517 -51 458 2Q389 -46 315 -54Q306 -56 297 -56T278
-56Q185 -53 121 5Q58 63 58 143Q58 186 70 220T112 285Q153 327 234 364Q193 467 193 521Q193 586 232 627Q274 669 347 669Q411 669 448 629Q483 591 483 536Q483 483 447 444Q404 403 299 356Q311 329 324 303T353 252Q379 201 409 156T473 68Q541 142 564 273V275Q565
278 565 287Q565 295 564 298Q561 311 552 322Q538 336 486 336V367H695V336Q675 336 659 333T632 322Q624 316 617 305T606 275Q569 116 496 40Q538 -3 584 -3Q653 -3 713 54Z" />
<glyph unicode="&apos;" glyph-name="null" horiz-adv-x="247" d="M160 611Q154 562 148 513T135 415Q134 410 134 404T132 393H124Q117 393 116 394Q109 448 103 502T89 611V612Q88 617 88 620T87 626Q87 634 88 636Q90 649 94 659Q103 681 125 681Q145 681 155
659Q160 650 161 637V620Q161 614 160 611Z" />
<glyph unicode="(" glyph-name="null" horiz-adv-x="460" d="M392 -132Q391 -138 390 -144T388 -155Q263 -84 195 50Q141 161 141 299Q141 432 195 545Q229 611 277 664T388 757Q389 752 390 746T392 734Q346 694 310 642T247 520Q225 466 215 412T205 299Q205
239 216 182T253 68Q279 4 314 -45T392 -132Z" />
<glyph unicode=")" glyph-name="null" horiz-adv-x="460" d="M319 299Q319 230 305 169T265 50Q195 -85 71 -155Q70 -150 70 -144T67 -132Q112 -94 146 -44T207 73Q255 185 255 299Q255 321 252 342Q248 387 238 430T212 515Q186 585 150 638T67 734Q69 739 69
745T71 757Q197 676 265 539Q319 428 319 299Z" />
<glyph unicode="*" glyph-name="null" horiz-adv-x="495" d="M247 304L249 305L248 304Q262 299 285 293T340 279Q418 262 418 234Q418 226 415 219Q406 199 390 199Q369 199 323 241Q279 280 248 304Q253 289 259 268T273 217Q284 165 284 153Q284 118 254 118Q224
118 224 155Q224 172 233 216Q235 227 238 249T247 303L248 304H247ZM311 365Q359 417 384 417Q398 417 407 403Q414 393 414 384Q414 358 337 334Q317 327 296 320T249 305Q267 321 282 336T311 365ZM214 315Q195 321 182 325T161 331Q84 352 84 378Q84 387 88
394Q95 413 112 413Q136 413 185 364Q201 350 216 335T247 304Q245 305 243 305T239 307Q234 309 228 310T214 315ZM247 304Q228 285 185 239Q138 188 115 188Q102 188 93 202Q87 212 87 221Q87 246 160 271L247 304ZM229 396Q218 448 218 459Q218 491 247 491Q279
491 279 456Q279 448 276 433T268 394Q265 380 256 343Q248 305 247 304Q245 318 241 341T229 396Z" />
<glyph unicode="+" glyph-name="null" horiz-adv-x="920" d="M700 275H488V65H433V275H219V334H433V534H488V334H700V275Z" />
<glyph unicode="," glyph-name="null" horiz-adv-x="254" d="M151 -10Q151 -36 143 -60T122 -106T92 -144T56 -172Q41 -181 35 -172Q28 -163 40 -154Q50 -146 60 -135T80 -109T95 -78T103 -43Q69 -47 52 -32T34 10Q34 35 50 49T90 64Q120 64 135 43T151 -10Z" />
<glyph unicode="-" glyph-name="null" horiz-adv-x="627" d="M535 245H92V306H535V245Z" />
<glyph unicode="." glyph-name="null" horiz-adv-x="257" d="M17 -39Q17 -16 32 -1T69 15Q92 15 107 0T123 -39Q123 -60 108 -75T69 -91Q48 -91 33 -76T17 -39Z" />
<glyph unicode="/" glyph-name="null" horiz-adv-x="371" d="M369 729Q288 514 211 305T52 -120H3Q82 95 160 304T317 729H369Z" />
<glyph unicode="0" glyph-name="null" horiz-adv-x="537" d="M501 305Q501 145 442 44Q379 -65 270 -65Q161 -65 98 44Q39 145 39 305Q39 465 98 566Q161 674 270 674Q379 674 442 566Q501 465 501 305ZM432 305Q432 442 395 531Q352 637 270 637Q188 637 146
531Q108 437 108 305Q108 173 146 79Q188 -27 270 -27Q352 -27 395 79Q432 168 432 305Z" />
<glyph unicode="1" glyph-name="null" horiz-adv-x="494" d="M424 -52H101V-19Q174 -19 204 -6Q232 6 232 36V536Q232 559 221 567T180 576H98V608Q130 611 157 617T208 633Q243 646 296 678V36Q296 17 306 6T346 -12Q360 -15 379 -17T424 -19V-52Z" />
<glyph unicode="2" glyph-name="null" horiz-adv-x="537" d="M487 126Q475 81 464 36T440 -54H51Q51 -49 51 -46T50 -39Q50 17 119 105Q140 131 159 153T199 197T242 239T291 284Q313 304 332 329T365 381T387 437T396 492Q396 521 389 545T365 588Q345 610 320
621T260 633Q208 633 165 602Q143 586 131 567T118 526Q118 508 132 491Q139 483 142 473T146 444Q146 428 134 417T102 406Q73 406 63 427T53 486Q53 541 89 587Q107 610 129 628T178 655Q220 670 267 670Q355 670 408 622Q464 572 464 484Q464 451 454 418T420
353Q396 318 364 283T294 213Q275 196 250 175T193 124Q143 77 111 11H322Q372 11 401 35Q429 56 461 133L487 126Z" />
<glyph unicode="3" glyph-name="null" horiz-adv-x="537" d="M486 148Q486 59 430 0Q364 -69 255 -69Q207 -69 171 -56T105 -20Q79 2 65 31T51 94Q51 124 72 141Q82 150 100 150Q144 150 144 102Q144 95 142 85T139 68Q139 53 142 36T153 9Q193 -31 255 -31Q285
-31 319 -16T373 22Q416 71 416 151Q416 213 366 260Q338 286 307 297T231 309Q227 309 223 309T213 307Q208 306 205 306T200 305Q187 305 182 319Q180 325 180 329T179 339Q179 354 193 356Q198 357 202 357T212 355Q218 354 222 354T231 353Q250 353 270 358T310
372Q338 385 352 399Q398 438 398 501Q398 563 366 598Q349 616 325 628T273 642H256Q252 642 248 642T240 641Q195 637 170 612Q155 597 155 579Q155 571 158 562Q161 554 162 545T164 530Q164 506 154 493T121 479L120 480Q76 483 76 534Q76 591 127 632Q178
672 246 677Q251 678 259 678H273Q360 677 414 629Q466 581 466 501Q466 435 421 387Q388 351 337 331Q402 311 438 269Q486 215 486 148Z" />
<glyph unicode="4" glyph-name="null" horiz-adv-x="537" d="M515 127H387V8Q387 -15 406 -22Q425 -30 478 -30V-63H228V-31Q285 -31 306 -22Q323 -14 323 8V125H40V164Q118 296 195 425T351 688H387V166H515V127ZM323 166V553Q263 456 206 360T88 166H323Z" />
<glyph unicode="5" glyph-name="null" horiz-adv-x="537" d="M490 173Q490 84 438 14Q413 -22 368 -44T274 -66Q171 -66 115 -13Q87 11 73 39T59 106Q59 152 104 152Q149 152 149 104Q149 99 149 91T146 76Q144 71 144 68T143 62Q143 32 161 11Q190 -27 264 -27Q322
-27 363 15Q393 47 406 85T420 175Q420 215 412 248T384 307Q361 336 332 352T264 369Q225 369 182 345Q137 319 112 280Q104 283 96 286T79 292L115 664H461Q456 647 452 630T443 596H152Q145 536 139 475T126 353Q193 409 275 409Q376 409 437 336Q490 274 490
173Z" />
<glyph unicode="6" glyph-name="null" horiz-adv-x="537" d="M488 167Q488 57 421 -10Q365 -70 276 -70Q221 -70 176 -46T105 27Q77 81 66 141T55 266Q55 345 73 423Q91 504 124 561Q195 677 315 677Q380 677 427 644Q473 613 473 571Q473 516 429 516Q384 516
384 558Q384 562 384 567T385 580Q386 591 385 595T382 604Q363 638 305 638Q230 638 177 540Q163 515 154 482T136 407Q126 361 126 311Q150 342 188 366Q242 399 304 399Q389 399 437 342Q488 282 488 167ZM420 176Q420 270 384 314Q344 360 286 360Q260 360
233 347T184 317Q142 281 126 234V225Q126 110 159 44Q177 8 205 -13T275 -35Q349 -35 383 20Q420 75 420 176Z" />
<glyph unicode="7" glyph-name="null" horiz-adv-x="537" d="M251 249Q265 285 301 356T398 534Q407 549 415 564T433 596H241Q223 596 208 596T180 592T152 581T122 558Q97 533 75 459Q70 461 64 462T52 466Q63 514 74 562T96 660H494V618Q490 611 487 605T480
591Q463 563 448 537T419 485Q364 395 335 316Q321 281 310 242T291 159Q283 121 279 89T274 27V6Q273 -31 264 -49T229 -67Q207 -67 198 -49Q189 -33 189 -4V4Q191 53 206 114T251 249Z" />
<glyph unicode="8" glyph-name="null" horiz-adv-x="537" d="M245 294Q213 277 189 258T146 216Q118 182 118 117Q118 51 160 9Q203 -34 269 -34Q339 -34 386 8Q434 51 434 116Q434 151 418 178T371 229Q362 236 347 245T315 263T280 281T245 294ZM275 358Q335
389 366 426Q396 463 396 504Q396 566 361 603Q326 642 270 642Q210 642 169 604Q128 565 128 504Q128 455 169 417Q190 393 275 358ZM490 119Q490 36 423 -18Q358 -72 267 -72Q168 -72 107 -18Q50 33 50 117Q50 194 105 252Q137 285 199 317Q146 342 117 377Q76
426 76 502Q76 578 131 627Q186 678 270 678Q370 678 421 612Q453 571 453 505Q453 450 406 397Q380 367 321 335Q391 303 428 267Q490 208 490 119Z" />
<glyph unicode="9" glyph-name="null" horiz-adv-x="537" d="M121 88Q166 88 166 37Q166 4 184 -9Q207 -31 250 -31Q279 -31 311 -10Q350 13 372 63Q383 89 392 123T410 202Q414 229 419 297Q408 278 391 263T352 235Q299 205 239 205Q164 205 112 263Q57 324
57 434Q57 532 111 600Q172 676 272 676Q364 676 417 610Q437 586 450 560T473 500Q480 469 484 430T489 339V328Q490 298 486 268T475 205Q465 154 452 115T423 47Q356 -68 229 -68Q187 -68 155 -56T103 -26Q75 2 75 38Q75 88 121 88ZM417 362V383Q417 410 415
434T409 482Q400 535 378 570Q360 602 335 620T272 638Q237 638 212 624T168 583Q128 527 128 431Q128 348 161 299Q195 248 257 248Q306 248 353 281Q401 315 417 362Z" />
<glyph unicode=":" glyph-name="null" horiz-adv-x="460" d="M284 489Q284 465 268 449T230 432Q208 432 192 448T176 489Q176 514 192 531T230 548Q252 548 268 531T284 489ZM284 114Q284 89 268 72T230 55Q208 55 192 72T176 114Q176 138 192 155T230 172Q252
172 268 155T284 114Z" />
<glyph unicode=";" glyph-name="null" horiz-adv-x="460" d="M286 486Q286 462 270 445T231 428Q208 428 192 445T175 486Q175 510 191 527T231 544Q254 544 270 527T286 486ZM295 84Q295 40 279 4Q277 -1 274 -7T266 -21Q261 -29 256 -35T245 -49Q232 -64 220
-74T196 -92Q190 -95 186 -95Q181 -95 178 -92Q175 -89 175 -85Q175 -79 181 -73Q196 -60 208 -45T231 -11Q246 14 246 41Q246 60 221 61V62Q204 63 193 74T176 103Q175 108 175 112T174 118Q174 142 193 158Q210 171 228 171Q259 171 279 145Q295 123 295 84Z"
/>
<glyph unicode="&lt;" glyph-name="null" horiz-adv-x="460" d="M120 300L426 -6L389 -48L39 300L384 649L421 607L120 300Z" />
<glyph unicode="=" glyph-name="null" horiz-adv-x="920" d="M705 370H214V428H705V370ZM705 167H214V225H705V167Z" />
<glyph unicode="&gt;" glyph-name="null" horiz-adv-x="460" d="M78 649L422 300L73 -48L35 -6L342 300L40 607L78 649Z" />
<glyph unicode="?" glyph-name="null" horiz-adv-x="920" d="M441 510Q441 454 388 378Q382 368 375 356T359 329Q338 304 320 280T286 233Q255 187 255 118H225Q225 206 246 250Q255 269 266 289T292 332Q300 347 307 360T319 384Q370 459 370 508Q370 567 339
605Q304 650 247 650Q189 650 151 621Q118 597 118 565Q118 549 139 534Q165 520 160 488Q157 444 113 444Q93 444 78 465T63 520Q63 594 119 641Q171 684 250 684Q335 684 387 635Q441 586 441 510ZM287 -7Q287 -30 272 -46T235 -63Q213 -63 198 -47T182 -7Q182
16 197 32T235 48Q257 48 272 32T287 -7Z" />
<glyph unicode="@" glyph-name="null" horiz-adv-x="959" d="M890 387Q890 280 832 189Q824 178 817 168T800 147Q738 79 657 79Q598 79 572 111Q557 129 554 161Q536 134 511 115Q467 80 413 80Q351 80 315 132Q284 172 284 237Q284 266 289 295T308 357Q321
386 342 412T388 458Q447 507 511 507Q595 507 616 430Q623 447 629 465T642 501H696Q676 426 658 352T619 203Q611 171 611 159Q611 116 665 116Q729 116 786 194Q847 276 847 385Q847 506 772 586Q686 678 531 678Q415 678 314 622Q275 599 241 563Q192 516 161
446Q129 370 129 288Q129 204 157 136Q187 66 242 21Q349 -70 489 -70Q652 -70 799 26Q803 18 806 11T813 -3Q653 -115 484 -115Q323 -115 210 -24Q199 -16 190 -7T171 10Q65 119 65 290Q65 393 108 478Q120 504 135 526T169 569Q220 628 303 669Q406 719 525 719Q707
719 806 609Q890 516 890 387ZM574 274Q587 322 587 370Q587 388 584 403Q572 471 514 471Q463 471 420 423Q398 401 384 375T360 320Q344 269 344 221Q344 216 344 211T345 201Q354 117 421 117Q472 117 516 173Q536 194 550 219T574 274Z" />
<glyph unicode="A" glyph-name="null" horiz-adv-x="694" d="M688 -43H439V-9Q484 -9 504 -3T530 15Q531 16 531 21Q531 26 529 31T525 43Q521 51 518 59T510 77Q499 110 487 142T464 206H190Q178 170 166 134T141 61Q136 51 135 43T133 27Q133 15 138 10Q147
-9 220 -9V-43H5V-9Q31 -9 47 -3T78 21Q85 30 91 44T104 75Q110 92 125 136T161 238T204 360T247 482T282 584T304 645Q317 652 330 658T356 672Q416 516 474 364T592 55Q605 21 623 6Q644 -9 688 -9V-43ZM451 246Q419 331 387 416T322 586Q292 501 263 416T203
246H451Z" />
<glyph unicode="B" glyph-name="null" horiz-adv-x="645" d="M611 152Q611 58 542 6Q478 -43 369 -43H24V-9Q78 -9 95 2Q113 18 113 47V560Q113 573 109 580Q105 593 97 602Q76 620 24 620V654H352Q466 654 523 612Q581 569 581 487Q581 436 543 392Q526 373 505
359T457 334Q519 316 556 282Q611 233 611 152ZM512 488Q512 518 501 543T469 585Q449 602 420 610T357 618H249Q223 618 207 612Q177 598 177 561V347H358Q377 347 395 350Q432 357 463 384Q512 424 512 488ZM542 152Q542 219 496 264Q448 309 373 309H177V48Q177
9 206 -2Q221 -7 249 -7H367Q443 -7 491 32Q542 75 542 152Z" />
<glyph unicode="C" glyph-name="null" horiz-adv-x="646" d="M583 163Q590 160 597 156T612 149Q574 48 507 -1Q436 -58 341 -58Q272 -58 216 -31T118 48Q41 151 41 303Q41 458 118 562Q199 669 326 669Q406 669 463 639Q477 645 492 650T521 661Q540 615 558
570T596 479Q589 476 583 473T570 466Q529 533 480 574Q427 617 368 624Q358 626 348 626T327 626Q260 623 207 570Q189 552 174 531Q112 442 112 309Q112 179 178 92Q187 81 196 71T215 53Q246 22 282 8T361 -6Q426 -6 485 41Q548 92 583 163Z" />
<glyph unicode="D" glyph-name="null" horiz-adv-x="672" d="M628 306Q628 144 538 48Q448 -43 301 -43H23V-10Q72 -10 92 5Q109 20 109 52V563Q109 593 91 607Q71 621 23 621V654H301Q455 654 541 562Q628 469 628 306ZM558 306Q558 452 488 537Q420 615 309
618Q305 619 301 619T292 619H257Q253 619 249 619T241 618Q202 618 188 606T173 573V53Q173 23 187 6Q191 2 196 1T209 -3Q216 -5 224 -6T241 -8H292Q297 -8 301 -8T309 -7Q420 -5 487 74Q558 160 558 306Z" />
<glyph unicode="E" glyph-name="null" horiz-adv-x="634" d="M583 141Q588 138 594 135T605 129Q588 84 573 42T540 -43H25V-11Q71 -11 92 4Q109 19 109 49V563Q109 574 106 582Q101 595 94 603Q74 621 25 621V654H517Q534 611 550 569T584 484Q579 481 574 478T564
472Q543 514 517 541T469 583Q416 619 346 619H240Q208 619 188 605Q173 593 173 563V338H323Q371 338 389 359Q412 385 412 457H442V180H412Q412 257 389 280Q371 301 323 301H173V48Q173 17 188 4Q198 -4 211 -6T242 -9H357Q436 -9 480 20Q506 37 531 68T583
141Z" />
<glyph unicode="F" glyph-name="null" horiz-adv-x="606" d="M515 654L583 490Q578 486 572 483T561 476Q520 544 480 576Q451 599 420 609T354 619H258Q243 619 228 618T203 613Q179 602 179 563V338H326Q375 338 393 359Q416 385 416 454H445V175H416Q416 253
393 279Q374 301 326 301H179V54Q179 13 194 3Q210 -10 278 -10V-43H31V-11Q85 -11 101 2Q115 14 115 53V563Q115 591 103 603Q85 621 31 621V654H515Z" />
<glyph unicode="G" glyph-name="null" horiz-adv-x="700" d="M674 241Q620 241 603 227Q589 215 589 180V-42H544L529 0Q461 -59 347 -59Q209 -59 126 39Q43 139 43 303Q43 462 131 565Q220 669 350 669Q374 669 396 666T441 658Q452 654 461 651T481 644Q498
649 515 654T549 666L618 486Q612 482 606 480T593 474Q574 506 553 532T506 579Q442 631 356 631Q305 631 263 605T187 538Q112 446 112 311Q112 165 181 74Q213 34 256 8T348 -19Q383 -19 413 -11T469 12Q488 25 500 38T519 67Q525 85 525 103V179Q525 214 509
227Q489 241 430 241V276H674V241Z" />
<glyph unicode="H" glyph-name="null" horiz-adv-x="719" d="M691 -44H460V-11Q503 -11 522 2Q540 15 540 46V309H184V46Q184 13 198 2Q217 -11 266 -11V-44H36V-11Q89 -11 107 4Q120 17 120 46V569Q120 598 106 609Q87 623 38 623V655H263V623Q215 623 199 609Q184
597 184 569V346H540V569Q540 597 522 609Q503 623 459 623V655H686V623Q638 623 619 609Q605 598 605 569V46Q605 13 619 2Q638 -11 691 -11V-44Z" />
<glyph unicode="I" glyph-name="null" horiz-adv-x="327" d="M284 -43H48V-11Q97 -11 116 2Q133 14 133 42V563Q133 595 116 609Q96 623 48 623V654H284V623Q266 623 253 621T229 615Q210 608 204 596T198 563V42Q198 12 213 2Q233 -11 284 -11V-43Z" />
<glyph unicode="J" glyph-name="null" horiz-adv-x="398" d="M381 622Q342 622 327 615Q308 609 302 596T295 563V143Q295 44 256 -8Q220 -59 155 -59Q110 -59 73 -42Q26 -18 26 24Q26 47 40 61Q54 78 73 78Q119 78 120 35Q120 27 120 20T122 8Q123 -9 128 -10Q139
-18 153 -18Q175 -18 189 -10T214 18Q231 55 231 121V563Q231 596 215 608Q192 622 144 622V654H381V622Z" />
<glyph unicode="K" glyph-name="null" horiz-adv-x="709" d="M524 10Q524 16 519 24L300 343L172 230V40Q172 11 185 2Q204 -11 253 -11V-43H28V-11Q75 -11 94 2Q109 12 109 41V562Q109 597 95 609Q78 623 28 623V654H253V623Q204 623 186 608Q172 597 172 561V282L493
571Q502 580 505 590T499 609Q487 623 426 623V654H654V622Q637 622 624 619T596 608Q575 595 538 563L347 391L584 43Q595 26 604 16T619 1Q630 -7 647 -9T687 -11V-43H438V-11Q503 -11 514 -4Q524 2 524 10Z" />
<glyph unicode="L" glyph-name="null" horiz-adv-x="614" d="M591 130L522 -44H31V-11Q82 -11 105 4Q122 16 122 46V565Q122 598 106 610Q87 623 31 623V655H284V623Q218 623 202 610Q186 597 186 565V45Q186 15 199 3Q214 -9 249 -9H360Q428 -9 474 28Q522 62
566 143L591 130Z" />
<glyph unicode="M" glyph-name="null" horiz-adv-x="836" d="M805 -43H567V-11Q624 -11 643 5Q659 20 659 49V590Q596 428 536 271T414 -49H383Q323 110 266 266T149 583V49Q149 16 166 2Q186 -11 235 -11V-43H30V-11Q79 -11 94 0T110 37V567Q110 596 94 608Q78
621 31 621V654H197Q251 506 305 362T414 69Q468 218 522 362T631 654H805V621Q747 621 734 608Q723 594 723 570V49Q723 18 736 5Q755 -11 805 -11V-43Z" />
<glyph unicode="N" glyph-name="null" horiz-adv-x="724" d="M699 623Q673 623 657 620T631 612T619 599T616 583Q615 582 615 572V-46H587Q476 105 368 253T151 552V49Q151 15 167 2Q184 -11 233 -11V-43H28V-11Q74 -11 94 3Q111 18 111 49V570Q111 595 94 607T28
620V654H155Q261 512 365 374T576 93V570Q576 600 558 611Q538 623 495 623V654H699V623Z" />
<glyph unicode="O" glyph-name="null" horiz-adv-x="679" d="M642 305Q642 139 551 39Q465 -60 339 -60Q213 -60 128 39Q37 139 37 305Q37 471 128 571Q213 670 339 670Q465 670 551 571Q642 471 642 305ZM572 305Q572 374 555 432T503 538Q435 630 339 630Q245
630 176 537Q106 443 106 305Q106 169 176 74Q246 -20 339 -20Q435 -20 502 74Q572 165 572 305Z" />
<glyph unicode="P" glyph-name="null" horiz-adv-x="596" d="M569 472Q569 384 510 330Q450 276 353 276H179V53Q179 17 196 3Q219 -11 277 -11V-43H23V-11Q75 -11 98 3Q115 17 115 53V563Q115 576 111 583Q106 596 98 604Q79 620 23 620V654H360Q448 654 508
606Q569 557 569 472ZM500 472Q500 538 453 579Q406 617 341 617H275Q267 617 259 617T242 616Q220 616 203 611Q189 606 184 595T179 564V315H340Q377 315 406 326T457 358Q500 401 500 472Z" />
<glyph unicode="Q" glyph-name="null" horiz-adv-x="690" d="M660 -69L676 -93Q630 -151 573 -151Q524 -151 485 -106Q463 -83 446 -41Q421 -50 396 -55T343 -60Q217 -60 131 38Q42 139 42 305Q42 470 131 570Q216 669 343 669Q469 669 555 570Q645 471 645 305Q645
199 610 120T503 -8Q547 -97 586 -97Q626 -97 660 -69ZM577 305Q577 445 507 536Q438 630 343 630Q251 630 179 537Q144 491 127 433T109 305Q109 173 179 82Q190 122 217 140Q251 165 303 165Q346 165 390 141Q440 113 478 45Q577 142 577 305ZM200 52Q264 -20
343 -20Q387 -20 427 0Q411 31 396 53T366 90Q350 106 331 115T290 125Q259 125 235 107Q211 89 200 52Z" />
<glyph unicode="R" glyph-name="null" horiz-adv-x="643" d="M627 -43H497Q451 42 405 124T313 292H182V52Q182 16 200 3Q223 -11 273 -11V-43H26V-11Q81 -11 101 3Q119 18 119 51V563Q119 591 100 605T26 620V654H334Q563 654 563 475Q563 411 532 368Q486 307
381 295Q419 228 456 162T531 29Q544 7 565 -2T627 -11V-43ZM495 477Q495 542 452 579Q408 617 335 617H247Q210 617 197 605Q182 591 182 564V331H347Q412 331 453 370Q495 412 495 477Z" />
<glyph unicode="S" glyph-name="null" horiz-adv-x="579" d="M541 136Q541 44 479 -7Q420 -60 319 -60Q285 -60 245 -52T170 -29Q153 -34 137 -40T106 -54Q88 -6 70 40T33 134Q40 138 46 141T59 148Q108 69 154 35Q169 23 189 13T232 -4T276 -16T316 -20Q354 -20
384 -10T434 18Q476 57 476 121Q476 145 465 168T436 207Q396 239 279 279Q186 312 132 356Q60 411 60 490Q60 571 118 620Q174 669 264 669Q307 669 348 657Q359 653 369 649T389 641L449 661Q467 615 485 570T521 479Q510 474 499 468Q457 540 403 582Q338 630
263 630Q237 630 215 623T175 603Q150 586 136 560T122 499Q122 442 181 404Q211 386 239 374T311 347Q372 327 414 306T481 265Q541 217 541 136Z" />
<glyph unicode="T" glyph-name="null" horiz-adv-x="698" d="M630 654Q645 611 660 569T689 482Q681 480 675 477T660 472Q641 514 624 540T589 583Q567 603 537 610T478 617Q420 617 402 608Q382 599 382 572V41Q382 12 404 0Q424 -11 491 -11V-43H209V-11Q269
-11 290 -1Q318 12 318 41V580Q318 601 303 609T241 617Q206 617 170 611T107 583Q96 574 86 562T63 529Q55 516 48 504T33 477Q27 480 22 482T10 488Q25 530 40 571T70 654H630Z" />
<glyph unicode="U" glyph-name="null" horiz-adv-x="712" d="M698 621Q645 621 626 608Q611 597 611 568V175Q611 78 561 16Q497 -60 354 -60Q247 -60 180 2Q109 70 109 185V567Q109 597 91 608Q72 621 16 621V654H266V621Q209 621 190 608Q175 597 175 567V179Q175
85 230 33Q284 -18 378 -18Q449 -18 497 21Q569 75 569 178V568Q569 596 552 608Q533 621 480 621V654H698V621Z" />
<glyph unicode="V" glyph-name="null" horiz-adv-x="687" d="M671 622Q626 622 606 608Q592 597 577 558L357 -55H331L107 569Q100 596 85 606Q63 622 14 622V655H261V622Q186 622 177 607Q166 598 172 582L358 64L536 567Q547 594 536 605Q525 622 454 622V655H671V622Z" />
<glyph unicode="W" glyph-name="null" horiz-adv-x="897" d="M884 622Q835 622 814 604Q798 590 791 560L616 -55H592Q556 72 520 196T448 448Q411 320 375 196T301 -55H276L99 581Q93 603 78 611Q58 622 10 622V654H261V622Q226 622 205 620T176 612Q170 607
170 598T171 579L303 94Q334 203 364 311T426 528L413 581Q410 592 404 600T391 612Q375 622 323 622V654H576V622Q539 622 518 620T490 612Q484 607 482 600T483 579L618 92L751 566Q754 578 755 589T748 609Q735 622 667 622V654H884V622Z" />
<glyph unicode="X" glyph-name="null" horiz-adv-x="666" d="M615 622Q596 622 580 619T550 605Q542 600 532 588T509 559L360 333L547 39Q566 8 582 0Q602 -11 652 -11V-43H389V-11Q457 -11 472 1Q478 5 478 12Q478 20 470 31L320 268L186 61Q174 44 168 33T161
15Q161 -5 208 -10Q216 -11 225 -11T245 -11V-43H16V-11Q65 -11 88 7Q96 14 106 24T126 50L297 308L127 577Q111 602 100 609Q88 617 73 619T38 622V654H284V622Q247 622 229 621T203 614Q189 603 200 587L337 373L469 573Q483 593 472 608Q461 622 400 622V654H615V622Z"
/>
<glyph unicode="Y" glyph-name="null" horiz-adv-x="612" d="M604 622Q572 622 549 606Q534 595 513 559L341 248V41Q341 12 356 2Q378 -11 438 -11V-43H178V-11Q209 -11 229 -8T261 1Q277 11 277 42V238L91 580Q79 603 62 612T9 622V654H238V622Q214 622 194
622T165 614Q158 609 158 602T163 587L320 294L475 574Q480 583 481 592T474 609Q461 622 398 622V654H604V622Z" />
<glyph unicode="Z" glyph-name="null" horiz-adv-x="587" d="M548 654Q552 648 555 642T562 629Q450 468 339 311T116 -7H347Q384 -7 415 6T475 50Q502 78 533 139Q539 137 544 134T556 129Q539 86 523 43T489 -43H41L26 -25Q138 137 250 296T474 618H277Q239
618 209 608T155 581Q135 567 115 541T75 475Q70 477 64 479T53 484Q67 527 82 569T111 654H548Z" />
<glyph unicode="[" glyph-name="null" horiz-adv-x="460" d="M397 -125H192V740H397V695H260V-81H397V-125Z" />
<glyph unicode="\" glyph-name="null" horiz-adv-x="967" d="M585 337L655 95L727 337H585ZM270 337L339 93L412 337H270ZM510 385L487 459L463 385H510ZM921 616Q873 616 851 598Q843 592 838 581T828 553L778 385H928V337H766L652 -49H632L522 337H451L338 -49H314L205
337H41V385H193L137 577Q131 599 116 606Q100 616 46 616V648H295V616Q259 616 241 614T214 601Q205 590 208 573T216 541L258 385H425L466 526L451 577Q443 599 430 607Q412 616 363 616V648H611V616Q576 616 555 614T527 604Q518 593 522 575T531 541L573 385H739L790
560Q793 571 793 582T785 602Q771 616 707 616V648H921V616Z" />
<glyph unicode="]" glyph-name="null" horiz-adv-x="460" d="M269 -125H63V-81H200V695H63V740H269V-125Z" />
<glyph unicode="^" glyph-name="null" horiz-adv-x="471" d="M442 453H396L231 635L69 453H28L193 694H271L442 453Z" />
<glyph unicode="_" glyph-name="null" horiz-adv-x="495" d="M495 -143H0V-95H495V-143Z" />
<glyph unicode="`" glyph-name="null" horiz-adv-x="325" d="M250 492L215 487L78 581Q47 601 40 617Q29 639 42 655T83 667Q101 663 122 633L250 492Z" />
<glyph unicode="a" glyph-name="null" horiz-adv-x="475" d="M109 399Q169 427 247 427Q310 427 349 394Q391 356 391 288V29Q391 24 391 17T393 3T398 -9T407 -14Q422 -14 450 8L462 -7Q418 -60 384 -60Q340 -60 331 -4Q269 -60 173 -60Q140 -60 114 -53T69 -31Q32
0 32 56Q32 98 60 131T134 187Q211 227 330 242V304Q330 343 306 367Q292 381 274 387T234 393Q194 393 166 377Q149 366 139 356T129 332V327Q129 278 86 278Q47 278 47 323Q47 370 109 399ZM330 204Q242 195 167 154Q99 116 99 57Q99 25 125 6T190 -14Q226 -14
265 0Q297 11 330 38V204Z" />
<glyph unicode="b" glyph-name="null" horiz-adv-x="504" d="M478 186Q478 77 416 9Q387 -23 353 -41T273 -60Q186 -60 131 -8Q123 -18 117 -27T102 -47H79V554Q79 576 69 585T21 595Q20 600 19 606T17 617Q49 629 79 641T140 665V390Q189 430 273 430Q365 430
421 365Q478 299 478 186ZM411 185Q411 276 368 332Q347 359 318 374T251 389Q187 389 140 343V31Q186 -18 251 -18Q318 -18 365 41Q411 96 411 185Z" />
<glyph unicode="c" glyph-name="null" horiz-adv-x="474" d="M424 77Q429 73 434 70T444 63Q371 -61 248 -61Q160 -61 98 1Q36 69 36 172Q36 279 104 356Q170 428 269 428Q328 428 372 405Q388 397 401 386T424 360Q434 343 434 326Q434 308 424 292T394 276Q358
276 346 332Q343 347 334 357T312 375Q286 391 248 391Q191 391 147 332Q103 270 103 186Q103 141 114 104T149 40Q196 -16 266 -16Q352 -16 424 77Z" />
<glyph unicode="d" glyph-name="null" horiz-adv-x="513" d="M501 -38Q460 -38 433 -41Q425 -42 411 -44T376 -48Q375 -40 375 -32T373 -16Q326 -60 240 -60Q154 -60 97 0Q34 66 34 184Q34 293 95 363Q153 430 240 430Q320 430 373 391V551Q373 572 360 582T300
592Q298 597 298 603T295 614Q330 626 364 638T434 664V43Q434 20 445 11Q463 -12 501 -12V-38ZM373 342Q328 389 262 389Q219 389 185 369T130 312Q101 259 101 183Q101 94 147 39Q193 -18 262 -18Q330 -18 373 31V342Z" />
<glyph unicode="e" glyph-name="null" horiz-adv-x="491" d="M445 77Q450 73 455 69T466 61Q442 25 413 1T351 -39Q306 -61 254 -61Q155 -61 92 2Q25 69 25 183Q25 293 89 360Q152 429 249 429Q346 429 402 373Q462 316 462 208Q369 205 279 202T95 195Q95 191
95 188T94 180Q94 138 105 104T139 43Q185 -17 268 -17Q312 -17 360 6Q382 19 403 36T445 77ZM97 233Q172 235 245 238T393 243Q392 309 352 349Q311 393 249 393Q189 393 144 345Q102 301 97 233Z" />
<glyph unicode="f" glyph-name="null" horiz-adv-x="341" d="M291 581Q269 581 249 595Q235 605 228 606T213 608Q194 608 180 570Q175 557 174 543T173 513V412H282V374H173V42Q173 3 204 -6Q224 -11 271 -11V-43H29V-11Q55 -11 71 -8T96 0Q105 5 108 15T111
42V374H30V412H111V474Q111 552 152 608Q198 671 269 671Q295 671 312 659Q331 646 331 621Q331 604 318 593T291 581Z" />
<glyph unicode="g" glyph-name="null" horiz-adv-x="519" d="M207 -4Q92 -29 92 -86Q92 -120 135 -138Q180 -155 261 -155Q287 -155 309 -153T351 -144Q357 -142 363 -140T374 -135Q419 -117 419 -89Q419 -69 399 -56T324 -29Q302 -24 273 -18T207 -4ZM505 394Q505
356 472 356Q458 356 445 366Q438 370 432 372T420 375Q415 375 414 374Q406 373 398 363Q427 325 427 268Q427 201 377 156Q326 111 245 111Q222 111 204 113T172 118Q129 109 129 90Q129 71 164 63Q174 61 184 60T203 56Q249 46 285 38T349 23Q377 16 398 9T435
-9Q479 -35 479 -75Q479 -190 246 -190Q28 -190 28 -88Q28 -58 68 -28Q86 -14 107 -5T152 9Q65 31 65 73Q65 114 133 137Q63 182 63 270Q63 337 115 382Q167 428 245 428Q328 428 374 391Q407 430 453 430Q505 430 505 394ZM365 268Q365 295 356 317T331 356T293
382T246 392Q192 392 160 358T127 270Q127 217 160 184Q194 147 246 147Q296 147 330 181Q365 216 365 268Z" />
<glyph unicode="h" glyph-name="null" horiz-adv-x="527" d="M514 -43H316V-10Q357 -10 374 1Q386 11 386 37V286Q386 376 289 376Q220 376 147 318V37Q147 11 160 1Q177 -10 216 -10V-43H20V-10Q58 -10 75 1Q86 12 86 37V548Q86 576 76 585Q65 595 23 595Q22
600 22 604T20 614Q52 627 83 639T147 665V361Q233 429 312 429Q378 429 413 395Q447 360 447 296V37Q447 10 458 1Q478 -10 514 -10V-43Z" />
<glyph unicode="i" glyph-name="null" horiz-adv-x="252" d="M181 618Q181 594 165 578T125 562Q103 562 89 578T74 618Q74 642 89 658T125 674Q149 674 165 658T181 618ZM228 -44H41V-11Q82 -11 94 1Q104 10 104 34V322Q104 344 95 352Q84 361 42 361L38 383L165
431V34Q165 6 174 -1Q187 -11 228 -11V-44Z" />
<glyph unicode="j" glyph-name="null" horiz-adv-x="252" d="M196 -5Q196 -76 171 -127Q148 -178 80 -178L79 -177Q61 -175 46 -166Q31 -157 22 -143T13 -111Q13 -60 55 -60Q97 -60 97 -100Q97 -115 94 -127Q93 -128 93 -131Q93 -140 104 -140Q105 -140 106 -140T108
-139Q134 -132 136 -71V319Q136 343 126 352Q115 361 71 361Q69 366 69 372T66 383Q98 395 131 407T196 431V-5ZM212 618Q212 593 197 577T158 561Q135 561 121 577T106 618Q106 642 121 658T158 674Q181 674 196 658T212 618Z" />
<glyph unicode="k" glyph-name="null" horiz-adv-x="543" d="M527 -43H311V-11Q357 -11 371 0Q377 3 377 9Q377 17 370 24Q365 29 361 34T352 44Q322 84 293 124T235 205Q214 188 193 172T149 139V41Q149 11 162 1Q171 -4 185 -7T218 -11V-43H23V-11Q41 -11 54
-8T76 1Q88 10 88 41V558Q88 592 58 597Q53 598 46 598T29 599Q28 604 27 608T25 618Q57 630 87 641T149 665V187Q200 229 250 269T352 352Q362 359 362 366Q362 371 358 375Q347 389 294 389V420H496V389Q468 389 450 382Q442 378 417 356L390 338Q362 315 335
292T278 246Q318 192 357 138T437 29Q452 9 470 2Q495 -11 527 -11V-43Z" />
<glyph unicode="l" glyph-name="null" horiz-adv-x="255" d="M226 -43H34V-11Q73 -11 87 0Q99 10 99 43V564Q99 581 87 588T36 596L30 620Q62 632 95 643T160 667V43Q160 12 171 1Q179 -4 192 -7T226 -11V-43Z" />
<glyph unicode="m" glyph-name="null" horiz-adv-x="804" d="M789 -43H590V-11Q627 -11 644 0Q656 12 656 38V302Q656 377 573 377Q510 377 437 317V38Q437 11 450 1Q460 -4 473 -7T503 -11V-43H310V-11Q346 -11 363 0Q375 10 375 38V312Q375 376 296 376Q225
376 155 313V38Q155 9 168 0Q188 -11 225 -11V-43H23V-11Q69 -11 86 6Q94 17 94 31V318Q94 334 90 343T70 357Q62 359 52 360T28 362Q27 367 26 372T24 383Q57 394 90 405T155 427V356Q241 427 327 427Q411 427 434 353Q520 427 606 427Q672 427 699 388Q718 360
718 313V38Q718 11 731 1Q739 -4 754 -7T789 -11V-43Z" />
<glyph unicode="n" glyph-name="null" horiz-adv-x="526" d="M509 -43H314V-11Q349 -11 363 -2Q380 9 380 41V292Q380 376 301 376Q254 376 222 360Q208 353 189 342T147 314V41Q147 11 160 1Q168 -4 182 -7T216 -11V-43H21V-11Q59 -11 76 1Q86 11 86 41V317Q86
344 76 351Q62 362 25 362Q23 367 23 373T20 384Q52 395 83 406T147 428V357Q232 427 320 427Q381 427 411 392Q441 356 441 290V42Q441 11 453 1Q461 -4 475 -7T509 -11V-43Z" />
<glyph unicode="o" glyph-name="null" horiz-adv-x="495" d="M468 184Q468 72 404 5Q343 -62 248 -62Q152 -62 91 5Q27 72 27 184Q27 296 91 363Q152 430 248 430Q343 430 404 363Q468 296 468 184ZM400 184Q400 276 356 335Q315 394 248 394Q182 394 138 335Q95
276 95 184Q95 93 137 33Q180 -25 248 -25Q313 -25 356 33Q400 92 400 184Z" />
<glyph unicode="p" glyph-name="null" horiz-adv-x="510" d="M483 188Q483 76 420 10Q361 -50 276 -50Q191 -50 145 -10V-110Q145 -136 159 -148Q176 -161 209 -161V-194H19V-161Q59 -161 73 -148Q83 -138 83 -110V321Q83 326 81 336Q80 344 75 349Q65 359 23
359Q22 364 22 370T20 381Q52 392 83 403T145 426V386Q197 426 279 426Q368 426 424 364Q483 296 483 188ZM416 187Q416 274 371 328Q327 384 257 384Q187 384 145 339V40Q187 -8 257 -8Q323 -8 368 46Q416 103 416 187Z" />
<glyph unicode="q" glyph-name="null" horiz-adv-x="508" d="M495 -194H299V-161Q332 -161 350 -153Q366 -143 366 -120V-8Q323 -51 235 -51Q148 -51 90 10Q28 78 28 187Q28 299 89 363Q146 425 234 425Q321 425 378 374L398 423L427 419V-120Q427 -144 438 -153Q452
-161 495 -161V-194ZM366 338Q324 383 254 383Q182 383 138 327Q95 272 95 186Q95 102 143 45Q189 -10 254 -10Q328 -10 366 38V338Z" />
<glyph unicode="r" glyph-name="null" horiz-adv-x="415" d="M398 384Q398 332 352 332Q333 332 310 349Q293 363 273 363Q247 363 208 333Q177 309 148 278V36Q148 8 158 -1Q169 -11 213 -11V-43H23V-11Q49 -11 63 -7T82 5Q87 13 87 30V322Q87 342 80 349Q76
353 63 358Q49 361 29 361Q27 366 26 371T23 381Q55 394 86 406T148 432V329Q172 352 196 371T243 403Q293 432 340 432Q398 432 398 384Z" />
<glyph unicode="s" glyph-name="null" horiz-adv-x="448" d="M416 72Q416 31 393 -1Q388 -6 384 -11T374 -21Q329 -60 252 -60Q199 -60 160 -43Q155 -41 151 -41T141 -40H131Q120 -45 110 -48T89 -56Q75 -18 60 18T31 93Q35 96 38 99T47 104Q90 44 129 16Q191
-24 251 -24Q298 -24 330 5Q356 31 356 68Q356 92 337 111Q333 114 327 118T313 127Q300 135 279 143T228 162Q181 178 150 191T103 218Q43 255 43 316Q43 372 96 405Q136 430 196 430Q248 430 303 410Q311 412 320 417T340 431Q354 395 368 359T396 285Q391 283
387 280T377 275Q352 323 310 353Q248 394 196 394Q158 394 136 381Q103 363 103 319Q103 291 132 271Q136 269 140 267T149 263Q163 255 184 246T231 229Q285 212 320 196T375 165Q416 132 416 72Z" />
<glyph unicode="t" glyph-name="null" horiz-adv-x="343" d="M305 55Q310 51 314 48T324 42Q306 0 275 -28Q240 -61 199 -61Q145 -61 117 -22Q109 -8 104 10T99 50V381H21V413Q75 413 101 454Q130 501 130 588H160V420H291V381H160V43Q160 -10 216 -10Q261 -10 305 55Z" />
<glyph unicode="u" glyph-name="null" horiz-adv-x="508" d="M495 -38Q464 -38 434 -40T374 -48Q373 -35 373 -23T371 2Q306 -62 206 -62Q154 -62 123 -40Q77 -9 77 62V327Q77 348 67 355Q50 365 16 365Q15 370 15 375T14 386Q46 397 76 407T138 427V67Q138 -12
226 -12Q317 -12 371 39V329Q371 342 361 348Q345 367 311 367Q310 372 310 377T309 387Q369 409 432 428V43Q432 32 435 25Q437 19 439 15T443 7Q458 -10 495 -10V-38Z" />
<glyph unicode="v" glyph-name="null" horiz-adv-x="522" d="M511 388Q471 388 456 381T434 357V354L416 312Q380 218 344 127T271 -57H248Q206 45 165 145T81 348V357Q72 374 58 381T10 388V420H211V388Q154 388 145 377Q140 372 140 365Q140 361 143 355L271
43Q298 112 324 180T378 317Q383 327 386 336T395 356Q397 364 397 365Q397 369 396 370Q393 378 385 383Q370 389 331 389V420H511V388Z" />
<glyph unicode="w" glyph-name="null" horiz-adv-x="742" d="M495 -57Q465 18 435 94T374 246Q345 170 316 94T258 -57H236Q196 46 157 146T77 350Q70 372 57 379Q40 388 7 388V420H205V388Q165 388 152 384T138 371Q138 367 141 361Q146 351 149 342T158 322Q184
255 209 190T259 57Q283 120 306 179T353 302Q348 313 344 324T334 346Q324 374 311 381Q300 387 269 387V420H464V388Q411 388 397 377Q392 372 392 366Q392 365 394 357L517 51Q544 127 570 203T624 355Q626 363 626 365Q626 371 622 376Q611 388 562 388V420H735V388Q695
388 680 379Q669 372 661 352Q626 249 591 148T520 -57H495Z" />
<glyph unicode="x" glyph-name="null" horiz-adv-x="552" d="M523 388Q486 388 459 378Q454 376 450 373T440 367Q432 362 424 352L414 340Q412 337 409 334T404 327Q379 297 354 268T304 208Q338 166 372 127T440 45Q445 38 449 32T459 20Q473 6 486 0Q506 -11
541 -11V-43H332V-11Q384 -11 390 -3Q393 0 393 4Q393 9 388 17L368 37Q342 68 317 98T267 159Q244 131 221 104T175 48Q170 42 166 37T158 26Q146 12 146 5Q146 2 148 0Q154 -11 201 -11V-43H11V-11Q52 -11 72 0Q100 15 126 47L246 187Q213 227 181 265T115 343Q94
370 83 377Q67 387 27 387V420H229V387Q204 387 191 386T174 379Q171 374 173 369T179 358T188 347T198 338Q219 313 240 288T283 237Q304 261 324 286T366 336Q371 343 376 349T387 361Q392 366 392 372Q392 377 389 380Q385 387 340 387V420H523V388Z" />
<glyph unicode="y" glyph-name="null" horiz-adv-x="521" d="M244 -8L75 355Q65 374 54 380Q48 383 38 385T7 387V420H198V387Q172 387 160 386T144 379Q139 372 143 360T153 334L275 73L383 323Q394 349 394 360T389 377Q384 382 375 384T343 387V420H516V387Q475
387 458 376Q437 363 421 324L250 -78Q221 -144 191 -168Q164 -189 122 -189Q109 -189 97 -186T74 -174Q50 -156 50 -128Q50 -79 92 -79Q137 -79 137 -118Q137 -133 146 -137Q152 -140 158 -140Q166 -140 174 -134Q195 -118 226 -50L244 -8Z" />
<glyph unicode="z" glyph-name="null" horiz-adv-x="447" d="M407 119Q412 116 418 114T429 109Q415 71 401 33T372 -43H25Q24 -38 24 -33T24 -21Q181 180 339 384H205Q165 384 131 356Q97 331 62 268Q56 270 50 273T39 278Q53 313 67 349T96 420H424V396Q343
294 265 195T105 -7H251Q288 -7 311 2T354 35Q367 49 380 70T407 119Z" />
<glyph unicode="{" glyph-name="null" horiz-adv-x="460" d="M402 -130Q287 -113 241 -57Q211 -18 211 40V183Q211 233 193 256Q189 260 185 262T176 268Q144 291 86 291V325Q166 325 193 360Q211 382 211 444V576Q211 630 238 665Q245 675 256 686Q308 732 401
743V711Q374 707 353 699T317 675Q312 669 308 664T299 652Q277 621 277 564V436Q277 426 276 421Q271 374 253 350Q238 324 190 308Q230 296 250 273Q277 241 277 192V51Q277 -6 300 -38Q304 -44 308 -49T318 -59Q349 -88 402 -98V-130Z" />
<glyph unicode="|" glyph-name="null" horiz-adv-x="471" d="M267 -129H211V741H267V-129Z" />
<glyph unicode="}" glyph-name="null" horiz-adv-x="460" d="M371 291Q293 291 264 256Q246 233 246 183V40Q246 -18 216 -57Q213 -62 209 -65T200 -71Q151 -115 56 -130V-98Q109 -87 139 -59Q144 -54 148 -49T157 -38Q180 -9 180 51V192Q180 241 208 273Q228
296 267 308Q219 324 204 350Q186 374 181 421Q180 426 180 436V564Q180 591 175 613T159 652Q155 658 151 663T141 675Q126 690 105 698T57 711V743Q150 732 201 686Q206 681 210 676T219 665Q246 630 246 576V444Q246 382 264 360Q271 353 281 348Q313 325 371
325V291Z" />
<glyph unicode="~" glyph-name="null" horiz-adv-x="684" d="M612 376Q617 371 622 367T632 358Q618 333 602 315T569 282Q520 242 458 242Q436 242 411 246T358 262Q349 265 339 269T319 278Q257 305 216 305Q173 305 129 279Q115 271 102 260T75 232Q70 237
65 241T55 250Q89 309 130 335Q170 365 216 365Q273 365 343 336Q415 305 458 305Q468 305 477 305T495 307Q513 309 529 315T560 331Q574 339 586 350T612 376Z" />
</font>
</defs>
</svg>
